# xmcd
#
# Track frame offsets: 
#        150
#        25537
#        44282
#        53887
#        65952
#        84875
#        113600
#        127905
#        143112
#        151037
#        170030
#        179877
#
# Disc length: 2540 seconds
#
# Revision: 2
# Processed by: cddbd v1.5.2PL0 Copyright (c) Steve Scherf et al.
# Submitted via: ExactAudioCopyFreeDBPlugin 1.0
#
DISCID=9c09ea0c
DTITLE=John Denver - Forever, John
DYEAR=1998
DGENRE=Country
TTITLE0=On the wings of an eagle (1979)
TTITLE1=River (1980)
TTITLE2=Rusty green (1969)
TTITLE3=Rita Ballou (1980)
TTITLE4=Four strong winds (1978)
TTITLE5=No one (1971)
TTITLE6=Dance little Jean (1979)
TTITLE7=High wind blowin' (1980)
TTITLE8=It's a sin to tell al lie (1973)
TTITLE9=Mr. Bojangles (1969)
TTITLE10=Nobody can take my dreams from me (1980)
TTITLE11=The game is over (1969)
EXTD=
EXTT0=
EXTT1=
EXTT2=
EXTT3=
EXTT4=
EXTT5=
EXTT6=
EXTT7=
EXTT8=
EXTT9=
EXTT10=
EXTT11=
PLAYORDER=
